%TF.GenerationSoftware,Altium Limited,Altium Designer,21.9.2 (33)*%
G04 Layer_Color=0*
%FSLAX45Y45*%
%MOMM*%
%TF.SameCoordinates,75CE8345-0679-459C-92E2-866CE1B62050*%
%TF.FilePolarity,Positive*%
%TF.FileFunction,Plated,1,2,PTH,Drill*%
%TF.Part,Single*%
G01*
G75*
%TA.AperFunction,OtherDrill,Pad Free-I_OUT (0mm,-55mm)*%
%ADD15C,1.45000*%
%TA.AperFunction,OtherDrill,Pad Free-I_OUT (-5mm,-55mm)*%
%ADD16C,1.45000*%
%TA.AperFunction,ViaDrill,NotFilled*%
%ADD17C,0.70000*%
%ADD18C,0.71120*%
D15*
X0Y-5500000D02*
D03*
D16*
X-500000D02*
D03*
D17*
X-3181980Y-3181980D02*
D03*
X567488Y1113758D02*
D03*
X3640576Y-2645034D02*
D03*
X3181980Y-3181980D02*
D03*
X3003716Y-3357256D02*
D03*
X1011271Y734731D02*
D03*
X3181980Y3181980D02*
D03*
X883883Y883883D02*
D03*
X734731Y1011271D02*
D03*
X4444597Y-703955D02*
D03*
X2645030Y3640571D02*
D03*
X2042954Y4009523D02*
D03*
X1390576Y4279754D02*
D03*
X703954Y4444591D02*
D03*
X0Y4500000D02*
D03*
X-703954Y4444591D02*
D03*
X-1390574Y4279748D02*
D03*
X-2042954Y4009523D02*
D03*
X-2645034Y3640576D02*
D03*
X-3181976Y3181976D02*
D03*
X-3640576Y2645034D02*
D03*
X-4009529Y2042957D02*
D03*
X-4279754Y1390576D02*
D03*
X-4444597Y703955D02*
D03*
X-4499993Y0D02*
D03*
X-4444591Y-703954D02*
D03*
X-4279754Y-1390576D02*
D03*
X-4009529Y-2042957D02*
D03*
X-3640576Y-2645034D02*
D03*
X-2645030Y-3640571D02*
D03*
X-2042954Y-4009523D02*
D03*
X-1390574Y-4279748D02*
D03*
X-703954Y-4444591D02*
D03*
X4009529Y-2042957D02*
D03*
X4279748Y-1390574D02*
D03*
X4500000Y0D02*
D03*
X4444597Y703955D02*
D03*
X4279754Y1390576D02*
D03*
X4009529Y2042957D02*
D03*
X3640576Y2645034D02*
D03*
X1234610Y195543D02*
D03*
X1188820Y386271D02*
D03*
X1113758Y567488D02*
D03*
X1250000Y0D02*
D03*
X1234610Y-195543D02*
D03*
X1188820Y-386271D02*
D03*
X1113758Y-567488D02*
D03*
X1011271Y-734732D02*
D03*
X883883Y-883883D02*
D03*
X0Y-1250000D02*
D03*
X-195543Y-1234610D02*
D03*
X-386271Y-1188820D02*
D03*
X-567488Y-1113758D02*
D03*
X-734731Y-1011271D02*
D03*
X-883883Y-883883D02*
D03*
X-1011271Y-734731D02*
D03*
X-1113758Y-567488D02*
D03*
X-1188821Y-386271D02*
D03*
X-1234610Y-195543D02*
D03*
X-1250000Y0D02*
D03*
X-1234610Y195543D02*
D03*
X-1188820Y386271D02*
D03*
X-1113758Y567488D02*
D03*
X-1011271Y734731D02*
D03*
X-883883Y883883D02*
D03*
X-734732Y1011271D02*
D03*
X-567488Y1113758D02*
D03*
X-386271Y1188821D02*
D03*
X-195543Y1234610D02*
D03*
X0Y1250000D02*
D03*
X195543Y1234610D02*
D03*
D18*
X386271Y1188821D02*
D03*
%TF.MD5,76e0a77118ac4779d4975e0cdab001fd*%
M02*
