%TF.GenerationSoftware,Altium Limited,Altium Designer,21.9.2 (33)*%
G04 Layer_Physical_Order=2*
G04 Layer_Color=16711680*
%FSLAX45Y45*%
%MOMM*%
%TF.SameCoordinates,B78EE042-0323-46B1-AAD3-62A74F185881*%
%TF.FilePolarity,Positive*%
%TF.FileFunction,Copper,L2,Bot,Signal*%
%TF.Part,Single*%
G01*
G75*
%TA.AperFunction,Conductor*%
%ADD10C,0.50000*%
%TA.AperFunction,ViaPad*%
%ADD11C,2.00000*%
%ADD12C,1.20000*%
D10*
X6899999Y0D02*
G03*
X6114804Y3196742I-6899999J0D01*
G01*
X6748434Y3527996D02*
X7126779Y3398169D01*
X6114804Y3196742D02*
X6748434Y3527996D01*
X3002131Y0D02*
X6899999D01*
X1851569Y-743302D02*
X6262894Y-2517667D01*
X1207407Y-323524D02*
X1851569Y-743302D01*
X1159795Y-466235D02*
X1756906Y-965868D01*
X5915070Y-3251837D01*
X1620820Y-1163507D02*
X5481563Y-3938903D01*
X1095383Y-602192D02*
X1620820Y-1163507D01*
X1015104Y-729426D02*
X1475800Y-1357068D01*
X4968655Y-4568912D01*
X1296499Y-1516541D02*
X4383774Y-5132740D01*
X920121Y-846095D02*
X1296499Y-1516541D01*
X811810Y-950507D02*
X1109494Y-1669923D01*
X3735393Y-5622218D01*
X691739Y-1041151D02*
X897328Y-1782023D01*
X3032903Y-6030256D01*
X561649Y-1116714D02*
X679135Y-1886371D01*
X2286481Y-6350945D01*
X446354Y-1944627D02*
X1506938Y-6579638D01*
X423422Y-1176101D02*
X446354Y-1944627D01*
X209569Y-1993916D02*
X279062Y-1218451D01*
X209569Y-1993916D02*
X705567Y-6713022D01*
X-106024Y-6749167D02*
X-30389Y-1994965D01*
X130661Y-1243152D01*
X-916080Y-6687547D02*
X-272096Y-1986350D01*
X-19634Y-1249845D01*
X-505377Y-1930129D02*
X-169644Y-1238434D01*
X-1712866Y-6529057D02*
X-505377Y-1930129D01*
X-738053Y-1864108D02*
X-317197Y-1209084D01*
X-2484841Y-6275991D02*
X-738053Y-1864108D01*
X-3220821Y-5932015D02*
X-951190Y-1753866D01*
X-460156Y-1162220D01*
X-1161400Y-1634249D02*
X-596448Y-1098521D01*
X-3910148Y-5502112D02*
X-1161400Y-1634249D01*
X-1342089Y-1476349D02*
X-724101Y-1018909D01*
X-4542834Y-4992509D02*
X-1342089Y-1476349D01*
X-5109716Y-4410589D02*
X-1517699Y-1310043D01*
X-841265Y-924538D01*
X-5602582Y-3764779D02*
X-1655507Y-1113600D01*
X-946243Y-816775D01*
X-1786378Y-910205D02*
X-1037515Y-697181D01*
X-6014294Y-3064436D02*
X-1786378Y-910205D01*
X-6338886Y-2319703D02*
X-1873350Y-686561D01*
X-1113758Y-567488D01*
X-1951928Y-457821D02*
X-1173867Y-429574D01*
X-6571657Y-1541368D02*
X-1951928Y-457821D01*
X-6709236Y-740706D02*
X-1983042Y-219887D01*
X-1216973Y-285439D01*
X-2004789Y20995D02*
X-1242451Y-137168D01*
X-6749629Y70685D02*
X-2004789Y20995D01*
X-1978250Y259483D02*
X-1249931Y13090D01*
X-6692252Y881052D02*
X-1978250Y259483D01*
X-6537936Y1678657D02*
X-1941912Y498598D01*
X-1239306Y163158D01*
X-1859251Y723871D02*
X-1210729Y310862D01*
X-6288915Y2451946D02*
X-1859251Y723871D01*
X-5948798Y3189718D02*
X-1766925Y947416D01*
X-1164614Y454064D01*
X-1632915Y1146470D02*
X-1101629Y590688D01*
X-5522510Y3881285D02*
X-1632915Y1146470D01*
X-5016227Y4516631D02*
X-1489931Y1341539D01*
X-1022687Y718756D01*
X-4437282Y5086552D02*
X-1312309Y1502881D01*
X-928931Y836413D01*
X-1126921Y1658213D02*
X-821719Y941954D01*
X-3794063Y5582794D02*
X-1126921Y1658213D01*
X-3095884Y5998166D02*
X-919546Y1781588D01*
X-702604Y1033850D01*
X-696361Y1869729D02*
X-573312Y1110771D01*
X-2352861Y6326653D02*
X-696361Y1869729D01*
X-466891Y1944740D02*
X-435715Y1171602D01*
X-1575756Y6563496D02*
X-466891Y1944740D01*
X-775826Y6705266D02*
X-230266Y1981863D01*
X-291807Y1215462D02*
X-230266Y1981863D01*
X10497Y2004871D02*
X35343Y6749907D01*
X-143671Y1241716D02*
X10497Y2004871D01*
X6545Y1249983D02*
X249121Y1979582D01*
X845999Y6696774D01*
X304519Y1212339D02*
X714126Y1863016D01*
X2418983Y6301667D01*
X485137Y1935315D02*
X1644401Y6546636D01*
X156666Y1240143D02*
X485137Y1935315D01*
X938152Y1771860D02*
X3158526Y5965418D01*
X447960Y1166975D02*
X938152Y1771860D01*
X584912Y1104707D02*
X1144223Y1646321D01*
X3852316Y5542757D01*
X713392Y1026436D02*
X1333719Y1496934D01*
X4490304Y5039807D01*
X1503897Y1325863D02*
X5063249Y4463855D01*
X831538Y933297D02*
X1503897Y1325863D01*
X937638Y826639D02*
X1652289Y1135587D01*
X5562851Y3823242D01*
X1030157Y708007D02*
X1776749Y928861D01*
X5981874Y3127248D01*
X1107754Y579120D02*
X1875470Y708681D01*
X6314247Y2385955D01*
X1169304Y441843D02*
X1947026Y478236D01*
X6555156Y1610101D01*
X1213917Y298167D02*
X1985515Y240274D01*
X6701112Y810924D01*
X1240946Y150171D02*
X3002131Y0D01*
D11*
X7126779Y3398169D02*
D03*
X6860218Y3912059D02*
D03*
D12*
X4383774Y-5132740D02*
D03*
X705567Y-6713022D02*
D03*
X3735393Y-5622218D02*
D03*
X-916080Y-6687547D02*
D03*
X-1712866Y-6529057D02*
D03*
X-1216973Y-285439D02*
D03*
X-1242451Y-137168D02*
D03*
X-1249931Y13090D02*
D03*
X-1239306Y163158D02*
D03*
X-1210729Y310862D02*
D03*
X6262894Y-2517667D02*
D03*
X-106024Y-6749167D02*
D03*
X1030157Y708007D02*
D03*
X937638Y826639D02*
D03*
X831538Y933297D02*
D03*
X584912Y1104707D02*
D03*
X713392Y1026436D02*
D03*
X-724101Y-1018909D02*
D03*
X-841265Y-924538D02*
D03*
X-1037515Y-697181D02*
D03*
X-946243Y-816775D02*
D03*
X-1113758Y-567488D02*
D03*
X-821719Y941954D02*
D03*
X-928931Y836413D02*
D03*
X-1022687Y718756D02*
D03*
X-1101629Y590688D02*
D03*
X-1164614Y454064D02*
D03*
X-596448Y-1098521D02*
D03*
X-460156Y-1162220D02*
D03*
X-317197Y-1209084D02*
D03*
X-169644Y-1238434D02*
D03*
X-19634Y-1249845D02*
D03*
X-1173867Y-429574D02*
D03*
X-6571657Y-1541368D02*
D03*
X-6709236Y-740706D02*
D03*
X-6537936Y1678657D02*
D03*
X-6692252Y881052D02*
D03*
X-6749629Y70685D02*
D03*
X2418983Y6301667D02*
D03*
X3158526Y5965418D02*
D03*
X1644401Y6546636D02*
D03*
X845999Y6696774D02*
D03*
X3852316Y5542757D02*
D03*
X4490304Y5039807D02*
D03*
X35343Y6749907D02*
D03*
X3032903Y-6030256D02*
D03*
X2286481Y-6350945D02*
D03*
X1506938Y-6579638D02*
D03*
X-775826Y6705266D02*
D03*
X-3220821Y-5932015D02*
D03*
X-3910148Y-5502112D02*
D03*
X-4542834Y-4992509D02*
D03*
X-2484841Y-6275991D02*
D03*
X-5109716Y-4410589D02*
D03*
X-5602582Y-3764779D02*
D03*
X-6014294Y-3064436D02*
D03*
X-6338886Y-2319703D02*
D03*
X1095383Y-602192D02*
D03*
X1015104Y-729426D02*
D03*
X920121Y-846095D02*
D03*
X811810Y-950507D02*
D03*
X691739Y-1041151D02*
D03*
X561649Y-1116714D02*
D03*
X423422Y-1176101D02*
D03*
X279062Y-1218451D02*
D03*
X130661Y-1243152D02*
D03*
X1159795Y-466235D02*
D03*
X6701112Y810924D02*
D03*
X1207407Y-323524D02*
D03*
X-5948798Y3189718D02*
D03*
X-5522510Y3881285D02*
D03*
X-5016227Y4516631D02*
D03*
X-6288915Y2451946D02*
D03*
X1213917Y298167D02*
D03*
X1240946Y150171D02*
D03*
X1107754Y579120D02*
D03*
X1169304Y441843D02*
D03*
X5915070Y-3251837D02*
D03*
X5481563Y-3938903D02*
D03*
X4968655Y-4568912D02*
D03*
X-1575756Y6563496D02*
D03*
X-573312Y1110771D02*
D03*
X-435715Y1171602D02*
D03*
X-702604Y1033850D02*
D03*
X6545Y1249983D02*
D03*
X156666Y1240143D02*
D03*
X304519Y1212339D02*
D03*
X447960Y1166975D02*
D03*
X6314247Y2385955D02*
D03*
X6555156Y1610101D02*
D03*
X5063249Y4463855D02*
D03*
X5562851Y3823242D02*
D03*
X5981874Y3127248D02*
D03*
X-291807Y1215462D02*
D03*
X-3794063Y5582794D02*
D03*
X-3095884Y5998166D02*
D03*
X-2352861Y6326653D02*
D03*
X-4437282Y5086552D02*
D03*
X-143671Y1241716D02*
D03*
%TF.MD5,b626f389ea46f022f7c17f9b5b276742*%
M02*
