%TF.GenerationSoftware,Altium Limited,Altium Designer,21.9.2 (33)*%
G04 Layer_Color=0*
%FSLAX45Y45*%
%MOMM*%
%TF.SameCoordinates,B78EE042-0323-46B1-AAD3-62A74F185881*%
%TF.FilePolarity,Positive*%
%TF.FileFunction,Plated,1,2,PTH,Drill*%
%TF.Part,Single*%
G01*
G75*
%TA.AperFunction,ViaDrill,NotFilled*%
%ADD14C,1.00000*%
%ADD15C,0.70000*%
D14*
X7126779Y3398169D02*
D03*
X6860218Y3912059D02*
D03*
D15*
X4383774Y-5132740D02*
D03*
X705567Y-6713022D02*
D03*
X3735393Y-5622218D02*
D03*
X-916080Y-6687547D02*
D03*
X-1712866Y-6529057D02*
D03*
X-1216973Y-285439D02*
D03*
X-1242451Y-137168D02*
D03*
X-1249931Y13090D02*
D03*
X-1239306Y163158D02*
D03*
X-1210729Y310862D02*
D03*
X6262894Y-2517667D02*
D03*
X-106024Y-6749167D02*
D03*
X1030157Y708007D02*
D03*
X937638Y826639D02*
D03*
X831538Y933297D02*
D03*
X584912Y1104707D02*
D03*
X713392Y1026436D02*
D03*
X-724101Y-1018909D02*
D03*
X-841265Y-924538D02*
D03*
X-1037515Y-697181D02*
D03*
X-946243Y-816775D02*
D03*
X-1113758Y-567488D02*
D03*
X-821719Y941954D02*
D03*
X-928931Y836413D02*
D03*
X-1022687Y718756D02*
D03*
X-1101629Y590688D02*
D03*
X-1164614Y454064D02*
D03*
X-596448Y-1098521D02*
D03*
X-460156Y-1162220D02*
D03*
X-317197Y-1209084D02*
D03*
X-169644Y-1238434D02*
D03*
X-19634Y-1249845D02*
D03*
X-1173867Y-429574D02*
D03*
X-6571657Y-1541368D02*
D03*
X-6709236Y-740706D02*
D03*
X-6537936Y1678657D02*
D03*
X-6692252Y881052D02*
D03*
X-6749629Y70685D02*
D03*
X2418983Y6301667D02*
D03*
X3158526Y5965418D02*
D03*
X1644401Y6546636D02*
D03*
X845999Y6696774D02*
D03*
X3852316Y5542757D02*
D03*
X4490304Y5039807D02*
D03*
X35343Y6749907D02*
D03*
X3032903Y-6030256D02*
D03*
X2286481Y-6350945D02*
D03*
X1506938Y-6579638D02*
D03*
X-775826Y6705266D02*
D03*
X-3220821Y-5932015D02*
D03*
X-3910148Y-5502112D02*
D03*
X-4542834Y-4992509D02*
D03*
X-2484841Y-6275991D02*
D03*
X-5109716Y-4410589D02*
D03*
X-5602582Y-3764779D02*
D03*
X-6014294Y-3064436D02*
D03*
X-6338886Y-2319703D02*
D03*
X1095383Y-602192D02*
D03*
X1015104Y-729426D02*
D03*
X920121Y-846095D02*
D03*
X811810Y-950507D02*
D03*
X691739Y-1041151D02*
D03*
X561649Y-1116714D02*
D03*
X423422Y-1176101D02*
D03*
X279062Y-1218451D02*
D03*
X130661Y-1243152D02*
D03*
X1159795Y-466235D02*
D03*
X6701112Y810924D02*
D03*
X1207407Y-323524D02*
D03*
X-5948798Y3189718D02*
D03*
X-5522510Y3881285D02*
D03*
X-5016227Y4516631D02*
D03*
X-6288915Y2451946D02*
D03*
X1213917Y298167D02*
D03*
X1240946Y150171D02*
D03*
X1107754Y579120D02*
D03*
X1169304Y441843D02*
D03*
X5915070Y-3251837D02*
D03*
X5481563Y-3938903D02*
D03*
X4968655Y-4568912D02*
D03*
X-1575756Y6563496D02*
D03*
X-573312Y1110771D02*
D03*
X-435715Y1171602D02*
D03*
X-702604Y1033850D02*
D03*
X6545Y1249983D02*
D03*
X156666Y1240143D02*
D03*
X304519Y1212339D02*
D03*
X447960Y1166975D02*
D03*
X6314247Y2385955D02*
D03*
X6555156Y1610101D02*
D03*
X5063249Y4463855D02*
D03*
X5562851Y3823242D02*
D03*
X5981874Y3127248D02*
D03*
X-291807Y1215462D02*
D03*
X-3794063Y5582794D02*
D03*
X-3095884Y5998166D02*
D03*
X-2352861Y6326653D02*
D03*
X-4437282Y5086552D02*
D03*
X-143671Y1241716D02*
D03*
%TF.MD5,9f8590715eddafa1376fc383a64c0c2a*%
M02*
